<svg width="24" height="24" viewBox="0 0 24 24" fill="none" xmlns="http://www.w3.org/2000/svg">
  <path d="M12 3C16.9706 3 21 7.02944 21 12C21 16.9706 16.9706 21 12 21C7.02944 21 3 16.9706 3 12C3 7.02944 7.02944 3 12 3Z" stroke="currentColor" stroke-width="2"/>
  <path d="M8 14C8 12.8954 8.89543 12 10 12H14C15.1046 12 16 12.8954 16 14C16 15.1046 15.1046 16 14 16H10C8.89543 16 8 15.1046 8 14Z" stroke="currentColor" stroke-width="2"/>
  <path d="M10 8L14 8" stroke="currentColor" stroke-width="2" stroke-linecap="round"/>
</svg> 