<svg width="24" height="24" viewBox="0 0 24 24" fill="none" xmlns="http://www.w3.org/2000/svg">
  <path d="M9 8C9 11.3137 11.6863 14 15 14C15.7671 14 16.4976 13.8595 17.1659 13.6047C17.4996 13.8342 17.9321 14 18.4 14C19.2837 14 20 13.2837 20 12.4C20 11.9321 19.8342 11.4996 19.6047 11.1659C19.8595 10.4976 20 9.76714 20 9C20 5.68629 17.3137 3 14 3C10.6863 3 8 5.68629 8 9" stroke="currentColor" stroke-width="2"/>
  <path d="M15 16C15 19.3137 12.3137 22 9 22C5.68629 22 3 19.3137 3 16C3 12.6863 5.68629 10 9 10C12.3137 10 15 12.6863 15 16Z" stroke="currentColor" stroke-width="2"/>
</svg> 