<svg width="120" height="32" viewBox="0 0 120 32" fill="none" xmlns="http://www.w3.org/2000/svg">
  <path d="M12 8C8.68629 8 6 10.6863 6 14C6 17.3137 8.68629 20 12 20" stroke="#FF6B6B" stroke-width="2" stroke-linecap="round"/>
  <path d="M20 14C20 10.6863 17.3137 8 14 8C10.6863 8 8 10.6863 8 14" stroke="#4ECDC4" stroke-width="2" stroke-linecap="round"/>
  
  <path d="M40 12L44 20H42L41 18H37L36 20H34L38 12H40ZM40.5 16L39 13L37.5 16H40.5Z" fill="#333333"/>
  <path d="M45 12H47V18H51V20H45V12Z" fill="#333333"/>
  <path d="M58 12V14H54V15H57V17H54V18H58V20H52V12H58Z" fill="#333333"/>
  <path d="M65 12L69 20H67L66 18H62L61 20H59L63 12H65ZM65.5 16L64 13L62.5 16H65.5Z" fill="#333333"/>
  
  <path d="M80 14.5C80 13.1193 78.8807 12 77.5 12H73V20H75V17H77.5C78.8807 17 80 15.8807 80 14.5ZM78 14.5C78 14.7761 77.7761 15 77.5 15H75V14H77.5C77.7761 14 78 14.2239 78 14.5Z" fill="#333333"/>
  <path d="M81 12H87V14H83V15H86V17H83V20H81V12Z" fill="#333333"/>
  <path d="M94 12V14H90V15H93V17H90V18H94V20H88V12H94Z" fill="#333333"/>
  <path d="M101 12L105 20H103L102 18H98L97 20H95L99 12H101ZM101.5 16L100 13L98.5 16H101.5Z" fill="#333333"/>
</svg> 